<svg xmlns="http://www.w3.org/2000/svg" viewBox="0 0 844.5 136.3"><path fill="currentColor" d="M68 93.4c-14.1 0-25.5-11.5-25.5-25.7.1-13.8 11.6-25.2 25.6-25.3 14-.1 25.7 11.7 25.6 25.7-.1 14-11.6 25.3-25.7 25.3zM23 51.4c-2.8-2.2-5.4-4.3-8.3-6.5.1-.2.4-.9.7-1.5 6.4-12.8 13.9-25 22.5-36.3C42.3 1.4 48.6-1 55.9.6c2.6.6 5 1.6 7.2 2.3-.6 3.6-1.1 6.8-1.6 10.4-.9-.3-2-.6-3.2-1-1.4-.5-2.7-.9-4.1-1.4-3.2-1.1-5.8-.3-7.8 2.5C37.9 24.9 30.4 37 24 49.8c-.4.5-.7 1.1-1 1.6zM84.8 22.9c2.2-2.8 4.2-5.5 6.4-8.4 1 .5 2.5 1.2 3.8 1.9 12 6.3 23.4 13.5 34.4 21.5 5.6 4.1 8.2 12.1 6.2 19-.6 2.1-1.4 4.2-2.2 6.4-1.9-.5-3.5-1.1-5.1-1.4-1.6-.3-3.2-.2-5.2-.3.6-2 1.1-4.1 2-6 2-4.6.3-7.9-3.4-10.5-11.4-7.8-23-15.2-35.4-21.4-.6-.3-1.1-.6-1.5-.8zM113.2 84.6c2.7 2.1 5.4 4.1 8.2 6.3-.1.2-.3.8-.6 1.3-6.6 13-14.3 25.3-22.9 37.1-4.1 5.6-11.3 8.2-17.9 6.4-2.5-.6-4.9-1.6-7-2.3.6-3.6 1.1-6.9 1.6-10.4 2 .7 4.3 1.4 6.6 2.2 3.9 1.3 6.5.5 8.9-2.8 8.3-11.6 15.8-23.7 22.2-36.6.5-.5.8-.9.9-1.2zM51.8 113.2c-1.4 1.3-2.7 2.4-3.8 3.7-1 1.3-1.8 2.9-2.8 4.6-3.1-1.6-6.4-3-9.4-4.9-9.6-6-19.3-12-28.7-18.4-5.8-4-8.5-11.6-6.7-18.6.6-2.3 1.5-4.6 2.2-6.7 3.5.6 6.8 1.1 10.3 1.7-.1.3-.2.9-.4 1.5-.6 1.9-1.3 3.9-2 5.8-1 3.1-.1 5.9 2.5 7.9 11.5 8.5 23.6 16 36.4 22.3 1 .3 1.6.7 2.4 1.1zM116.8 76.3c0-5 4.2-9.3 9.2-9.3 4.9 0 9.3 4.3 9.3 9.2 0 5.1-4.3 9.4-9.4 9.4-5 0-9-4.2-9.1-9.3zM76.4 19.1c-5 0-9-3.9-9.1-9-.1-5.1 4-9.4 9-9.4 5.2 0 9.5 4.1 9.5 9.2 0 5.2-4.1 9.2-9.4 9.2zM68.9 125.9c0 5.2-4 9.2-9.1 9.2s-9.3-4-9.3-9.1c-.1-5.1 4.3-9.4 9.5-9.4 4.7 0 8.9 4.4 8.9 9.3zM10.2 68.7c-5.1 0-9.3-4.1-9.3-9.1 0-5.1 4.2-9.3 9.3-9.3 5.1 0 9.1 4.1 9.1 9.2s-4.1 9.2-9.1 9.2z"/><path fill="currentColor" d="M202 115.3V19.9h59.8v17.6h-41.2v21.7h37.3v16.6h-37.3v22h41.2v17.6H202zM284.6 19.9H305l24.9 71 24.9-71h19.7l-35.4 95.5H320l-35.4-95.5zM400.1 115.3V19.9h59.8v17.6h-41.2v21.7H456v16.6h-37.3v22h41.2v17.6h-59.8zM491.9 115.3V19.9H515L554.8 83V19.9h18.6v95.5h-19.5l-43.3-67.7v67.7h-18.7zM599.8 37.5V19.9h79.1v17.6h-30.2v77.9h-18.6V37.5h-30.3zM705.4 115.3V19.9H724v95.5h-18.6zM749.9 115.3l36.7-95.5h21.5l36.4 95.5h-20.2l-8-21.8h-38.8l-8 21.8h-19.6zm33.9-38.8h26.4L797 40.4l-13.2 36.1z"/></svg>